<?xml version="1.0" standalone="no"?>
<!DOCTYPE svg PUBLIC "-//W3C//DTD SVG 1.1//EN" "http://www.w3.org/Graphics/SVG/1.1/DTD/svg11.dtd" >
<svg>
<metadata>
Created by FontForge 20090622 at Thu Sep 27 11:33:35 2012
 By ffonts
Copyright (c) Arkandis Digital Foundry, from Bitstream Vera Sans font modified under GNU General Public Licence.
</metadata>
<defs>
<font id="SwitzeraADF-Regular" horiz-adv-x="250" >
  <font-face 
    font-family="Switzera ADF"
    font-weight="400"
    font-stretch="normal"
    units-per-em="1000"
    panose-1="2 11 5 3 2 2 2 2 0 3"
    ascent="800"
    descent="-200"
    x-height="492"
    cap-height="721"
    bbox="-70 -275 1922 952"
    underline-thickness="50"
    underline-position="-100"
    stemh="82"
    stemv="86"
    unicode-range="U+0020-U+FB06"
  />
<missing-glyph horiz-adv-x="266" 
 />
    <glyph glyph-name="AE" unicode="AE" horiz-adv-x="902" 
d="M859 721v-82h-344v-214h330v-82h-330v-262h353v-81h-446v184h-245l-73 -184h-95l289 721h561zM362 644l-152 -378h212v373z" />
    <glyph glyph-name="ae" unicode="ae" horiz-adv-x="921" 
d="M786 289c0 86 -55 146 -140 146c-94 0 -154 -52 -164 -146h304zM451 423c44 51 111 81 194 81c136 0 227 -90 227 -238v-40h-393c8 -109 71 -172 186 -172c63 0 124 15 187 47v-76c-60 -25 -127 -37 -192 -37c-104 0 -181 34 -228 104c-45 -68 -110 -104 -201 -104
c-116 0 -185 56 -185 155c0 111 80 167 234 167h120v8c0 72 -54 117 -148 117c-61 0 -116 -14 -168 -40v74c62 23 121 35 177 35c87 0 156 -30 190 -81zM315 247c-139 0 -183 -27 -183 -99c0 -58 41 -94 111 -94c93 0 157 69 157 175v18h-85z" />
    <glyph glyph-name="OE" unicode="OE" horiz-adv-x="982" 
d="M939 721v-82h-344v-214h330v-82h-330v-262h353v-81h-494c-264 0 -409 119 -409 360c0 236 142 361 409 361h485zM501 639h-60c-194 0 -297 -89 -297 -279c0 -184 97 -279 297 -279h60v558z" />
    <glyph glyph-name="oe" unicode="oe" horiz-adv-x="972" 
d="M837 289c-1 89 -54 146 -140 146c-94 0 -154 -52 -164 -146h304zM923 266v-40h-392c7 -109 69 -171 185 -171c63 0 124 15 187 46v-76c-60 -25 -126 -37 -192 -37c-96 0 -172 30 -224 95c-43 -63 -105 -95 -195 -95c-147 0 -238 95 -238 257c0 160 89 259 238 259
c85 0 152 -32 194 -97c47 62 121 97 210 97c137 0 227 -90 227 -238zM292 435c-90 0 -148 -71 -148 -190c0 -115 53 -190 148 -190c89 0 148 72 148 190c0 115 -56 190 -148 190z" />
    <glyph glyph-name="f_f" unicode="ff" horiz-adv-x="638" 
d="M431 429h-234v-429h-85v429h-82v63h82v113c0 111 51 193 168 195h80v-68h-81c-63 0 -80 -56 -82 -118v-122h234v113c0 111 51 193 168 195h80v-68h-81c-63 0 -80 -56 -82 -118v-122h95v-63h-95v-429h-85v429z" />
    <glyph glyph-name="f_i" unicode="fi" horiz-adv-x="561" 
d="M483 492v-492h-86v429h-200v-429h-85v429h-82v63h82v113c0 111 51 193 168 195h80v-68h-81c-63 0 -80 -56 -82 -118v-122h286zM397 684h86v-103h-86v103z" />
    <glyph glyph-name="f_l" unicode="fl" horiz-adv-x="561" 
d="M483 800v-800h-86v732h-118c-63 0 -80 -56 -82 -118v-122h95v-63h-95v-429h-85v429h-82v63h82v113c0 111 51 193 168 195h203z" />
    <glyph glyph-name="f_f_i" unicode="ffi" horiz-adv-x="880" 
d="M716 684h86v-103h-86v103zM716 429h-200v-429h-85v429h-234v-429h-85v429h-82v63h82v113c0 111 51 193 168 195h80v-68h-81c-63 0 -80 -56 -82 -118v-122h234v113c0 111 51 193 168 195h80v-68h-81c-63 0 -80 -56 -82 -118v-122h286v-492h-86v429z" />
    <glyph glyph-name="f_f_l" unicode="ffl" horiz-adv-x="880" 
d="M802 800v-800h-86v732h-118c-63 0 -80 -56 -82 -118v-122h95v-63h-95v-429h-85v429h-234v-429h-85v429h-82v63h82v113c0 111 51 193 168 195h80v-68h-81c-63 0 -80 -56 -82 -118v-122h234v113c0 111 51 193 168 195h203z" />
    <glyph glyph-name=".notdef" horiz-adv-x="266" 
 />
    <glyph glyph-name="space" unicode=" " horiz-adv-x="325" 
 />
    <glyph glyph-name="exclam" unicode="!" horiz-adv-x="305" 
d="M105 122h95v-122h-95v122zM105 721h95v-489h-95v489z" />
    <glyph glyph-name="quotedbl" unicode="&#x22;" horiz-adv-x="411" 
d="M157 656v-244h-79v244h79zM333 656v-244h-79v244h79z" />
    <glyph glyph-name="numbersign" unicode="#" horiz-adv-x="690" 
d="M432 435h-135l-39 -162h136zM363 710l-49 -201h136l49 201h74l-48 -201h145v-74h-163l-38 -162h147v-74h-165l-48 -199h-75l48 199h-136l-47 -199h-75l48 199h-146v74h163l39 162h-149v74h167l50 201h73z" />
    <glyph glyph-name="dollar" unicode="$" horiz-adv-x="512" 
d="M279 -145h-47v145c-66 0 -130 14 -195 44v86c60 -40 124 -61 195 -62v220c-134 23 -195 73 -195 174c0 103 68 166 195 176v114h47v-113c55 0 109 -12 162 -30v-85c-51 27 -103 41 -162 45v-206c139 -22 204 -77 204 -180c0 -109 -72 -174 -204 -183v-145zM232 371v198
c-70 -7 -110 -43 -110 -100c0 -56 33 -83 110 -98zM279 278v-209c76 10 119 46 119 105c0 55 -35 88 -119 104z" />
    <glyph glyph-name="percent" unicode="%" horiz-adv-x="866" 
d="M672 316c-51 0 -86 -47 -86 -135c0 -81 30 -134 86 -134c52 0 86 52 86 134c0 83 -34 135 -86 135zM672 378c97 0 160 -76 160 -197c0 -117 -61 -194 -160 -194c-100 0 -160 75 -160 194s60 195 160 197zM193 673c-54 0 -85 -53 -85 -136c0 -80 28 -135 85 -135
c53 0 87 47 87 135c0 83 -32 136 -87 136zM612 733h74l-433 -746h-74zM193 733c94 0 161 -72 161 -196c0 -118 -60 -196 -161 -196c-98 0 -159 74 -159 196c0 116 61 196 159 196z" />
    <glyph glyph-name="ampersand" unicode="&#x26;" horiz-adv-x="695" 
d="M208 387c-55 -51 -82 -101 -82 -160c0 -90 71 -164 173 -164c58 0 108 19 155 62zM273 442l236 -252c35 57 57 122 61 196h86c-8 -85 -39 -169 -97 -249l129 -137h-117l-66 70c-65 -57 -132 -83 -215 -83c-147 0 -253 96 -253 235c0 83 41 154 124 219
c-28 37 -46 79 -46 120c0 104 76 172 189 172c51 0 101 -11 154 -34v-88c-53 30 -103 46 -145 46c-64 0 -109 -38 -109 -95c0 -36 11 -59 69 -120z" />
    <glyph glyph-name="quotesingle" unicode="'" horiz-adv-x="235" 
d="M157 735v-243h-79v243h79z" />
    <glyph glyph-name="parenleft" unicode="(" horiz-adv-x="283" 
d="M261 751c-82 -152 -123 -292 -123 -441c0 -148 39 -291 123 -439h-74c-93 147 -139 292 -139 439c0 143 45 286 139 441h74z" />
    <glyph glyph-name="parenright" unicode=")" horiz-adv-x="285" 
d="M22 751h74c92 -151 139 -295 139 -441c0 -144 -45 -291 -139 -439h-74c81 143 122 288 122 439c0 147 -39 292 -122 441z" />
    <glyph glyph-name="asterisk" unicode="*" horiz-adv-x="488" 
d="M453 602l-167 -94l167 -94l-27 -48l-156 99v-183h-53v183l-156 -99l-26 48l166 94l-166 94l26 48l156 -98v181h53v-181l156 98z" />
    <glyph glyph-name="plus" unicode="+" horiz-adv-x="624" 
d="M351 620v-270h258v-82h-258v-268h-78v268h-258v82h258v270h78z" />
    <glyph glyph-name="comma" unicode="," horiz-adv-x="251" 
d="M92 111h98v-75l-76 -140h-60l38 140v75z" />
    <glyph glyph-name="hyphen" unicode="-" horiz-adv-x="406" 
d="M78 282h250v-72h-250v72z" />
    <glyph glyph-name="period" unicode="." horiz-adv-x="254" 
d="M78 111h98v-111h-98v111z" />
    <glyph glyph-name="slash" unicode="/" horiz-adv-x="352" 
d="M256 721h79l-241 -812h-79z" />
    <glyph glyph-name="zero" unicode="0" horiz-adv-x="637" 
d="M317 656c-97 0 -145 -99 -145 -297s48 -297 145 -297c95 0 145 96 145 297c0 198 -48 297 -145 297zM317 733c152 0 240 -128 240 -374c0 -243 -86 -372 -240 -372c-155 0 -239 127 -239 372c0 244 82 374 239 374z" />
    <glyph glyph-name="one" unicode="1" horiz-adv-x="401" 
d="M63 81h104v551l-109 -67v89l108 67h94v-640h98v-81h-295v81z" />
    <glyph glyph-name="two" unicode="2" horiz-adv-x="569" 
d="M62 81c232 257 342 333 342 441c0 74 -55 130 -140 130c-75 -2 -169 -96 -197 -172v122c20 68 124 130 195 131c141 0 236 -77 236 -205c0 -60 -16 -105 -74 -179c-15 -18 -99 -107 -249 -268h327v-81h-440v81z" />
    <glyph glyph-name="three" unicode="3" horiz-adv-x="575" 
d="M358 388c87 -20 143 -86 143 -179c0 -142 -98 -222 -271 -222c-57 0 -118 12 -185 33v95c52 -30 112 -47 182 -47c117 0 180 48 180 141c0 84 -59 136 -162 136h-71v80h75c89 0 142 38 142 111c0 72 -49 116 -146 116c-51 0 -115 -14 -180 -58v86c61 28 132 53 189 53
c140 0 230 -70 230 -187c0 -78 -44 -136 -126 -158z" />
    <glyph glyph-name="four" unicode="4" horiz-adv-x="590" 
d="M355 635l-237 -385h237v385zM330 721h118v-471h99v-81h-99v-169h-93v169h-313v95z" />
    <glyph glyph-name="five" unicode="5" horiz-adv-x="572" 
d="M132 721h368l-19 -82h-282l-23 -177c27 9 46 13 74 14c150 0 252 -90 252 -245c0 -154 -97 -244 -266 -244c-55 0 -117 8 -182 29v98c56 -31 114 -46 180 -46c106 0 174 60 174 163c0 100 -68 163 -174 163c-50 0 -98 -12 -151 -36z" />
    <glyph glyph-name="six" unicode="6" horiz-adv-x="619" 
d="M322 399c-82 0 -137 -63 -137 -168c0 -102 49 -169 137 -169c84 0 137 66 137 169s-53 168 -137 168zM508 705v-89c-46 23 -94 36 -142 36c-125 0 -189 -88 -198 -263c37 56 92 86 160 87c137 0 225 -94 225 -245c0 -148 -91 -244 -231 -244c-159 0 -247 128 -247 372
c0 227 113 374 287 374c45 0 94 -9 146 -28z" />
    <glyph glyph-name="seven" unicode="7" horiz-adv-x="522" 
d="M33 721h445v-42l-251 -679h-98l236 639h-332v82z" />
    <glyph glyph-name="eight" unicode="8" horiz-adv-x="623" 
d="M311 342c-88 0 -144 -50 -144 -140c0 -87 55 -140 144 -140c85 0 143 51 143 140c0 85 -51 140 -143 140zM216 383c-77 19 -127 80 -127 163c0 115 83 187 222 187c132 0 221 -67 221 -187c0 -79 -46 -141 -127 -163c88 -22 141 -86 143 -181c0 -138 -84 -215 -237 -215
c-152 0 -238 72 -238 215c0 90 52 159 143 181zM182 537c0 -75 49 -118 129 -118c77 0 128 43 128 118c0 74 -47 119 -128 119c-79 0 -129 -43 -129 -119z" />
    <glyph glyph-name="nine" unicode="9" horiz-adv-x="619" 
d="M109 14v89c44 -23 94 -35 143 -35c124 0 186 83 197 262c-36 -55 -93 -84 -159 -86c-138 0 -226 91 -226 244c0 147 91 245 231 245c157 0 247 -128 247 -374c0 -224 -109 -372 -287 -372c-45 0 -94 9 -146 27zM295 320c83 0 137 63 137 168c0 99 -49 168 -137 168
c-81 0 -137 -62 -137 -168c0 -105 55 -168 137 -168z" />
    <glyph glyph-name="colon" unicode=":" horiz-adv-x="254" 
d="M78 111h98v-111h-98v111zM78 465h98v-112h-98v112z" />
    <glyph glyph-name="semicolon" unicode=";" horiz-adv-x="256" 
d="M90 465h98v-112h-98v112zM90 111h98v-75l-76 -140h-60l38 140v75z" />
    <glyph glyph-name="less" unicode="&#x3c;" horiz-adv-x="664" 
d="M619 442l-479 -161l479 -160v-80l-595 204v73l595 204v-80z" />
    <glyph glyph-name="equal" unicode="=" horiz-adv-x="751" 
d="M78 408h595v-74h-595v74zM78 229h595v-75h-595v75z" />
    <glyph glyph-name="greater" unicode="&#x3e;" horiz-adv-x="664" 
d="M45 442v80l595 -204v-73l-595 -204v80l478 160z" />
    <glyph glyph-name="question" unicode="?" horiz-adv-x="466" 
d="M155 100h95v-100h-95v100zM223 733c113 0 189 -66 189 -173c0 -48 -20 -85 -75 -141l-41 -42c-39 -39 -49 -49 -49 -98c0 -7 1 -16 1 -26l-1 -60h-89v74c0 66 10 94 68 154l42 43c35 32 48 60 50 94c0 56 -44 96 -111 96c-49 0 -104 -22 -165 -66v91c56 37 115 54 181 54
z" />
    <glyph glyph-name="at" unicode="@" horiz-adv-x="895" 
d="M329 258c0 -89 44 -147 124 -147c73 0 122 55 122 147c0 90 -48 147 -123 147c-72 0 -121 -51 -123 -147zM582 114c-36 -50 -84 -73 -147 -73c-104 0 -180 87 -180 217c0 125 72 218 180 218c60 0 111 -22 147 -73v63h66v-355c90 14 143 88 145 204
c0 196 -162 308 -328 312c-212 0 -361 -168 -361 -366c0 -214 161 -363 353 -363c80 0 161 29 224 82l42 -54c-76 -62 -171 -95 -266 -97c-254 0 -418 205 -418 432c0 254 196 435 425 435c212 0 395 -164 395 -380c0 -169 -105 -272 -277 -277v75z" />
    <glyph glyph-name="A" unicode="A" horiz-adv-x="656" 
d="M327 624l-126 -358h253zM274 721h106l264 -721h-97l-63 184h-313l-61 -184h-99z" />
    <glyph glyph-name="B" unicode="B" horiz-adv-x="617" 
d="M172 344v-265h151c98 0 148 40 148 133c0 89 -49 132 -148 132h-151zM172 641v-218h139c89 0 136 33 136 109c0 71 -42 107 -136 109h-139zM78 721h240c139 0 223 -64 223 -178c0 -88 -38 -141 -117 -155c91 -20 146 -88 146 -187c0 -129 -87 -201 -243 -201h-249v721z
" />
    <glyph glyph-name="C" unicode="C" horiz-adv-x="643" 
d="M606 665v-102c-62 60 -134 90 -215 90c-155 0 -245 -101 -245 -294c0 -186 83 -293 245 -293c79 0 149 28 215 91v-102c-65 -46 -136 -68 -221 -68c-208 0 -338 140 -338 372c0 231 129 374 338 374c85 0 157 -23 221 -68z" />
    <glyph glyph-name="D" unicode="D" horiz-adv-x="710" 
d="M172 641v-562h114c191 0 276 87 276 281c0 193 -85 281 -276 281h-114zM78 721h193c266 0 390 -110 390 -361c0 -247 -121 -360 -390 -360h-193v721z" />
    <glyph glyph-name="E" unicode="E" horiz-adv-x="559" 
d="M78 721h438v-82h-344v-214h330v-82h-330v-262h353v-81h-447v721z" />
    <glyph glyph-name="F" unicode="F" horiz-adv-x="498" 
d="M78 721h398v-82h-304v-214h275v-81h-275v-344h-94v721z" />
    <glyph glyph-name="G" unicode="G" horiz-adv-x="706" 
d="M559 102v195h-153v79h246v-309c-72 -54 -159 -80 -259 -80c-217 0 -346 136 -346 372c0 237 130 374 346 374c88 0 173 -22 241 -68v-103c-68 60 -146 91 -234 91c-167 0 -254 -97 -254 -294c0 -193 84 -293 254 -293c67 0 118 11 159 36z" />
    <glyph glyph-name="H" unicode="H" horiz-adv-x="685" 
d="M78 721h94v-296h341v296h94v-721h-94v343h-341v-343h-94v721z" />
    <glyph glyph-name="I" unicode="I" 
d="M78 721h94v-721h-94v721z" />
    <glyph glyph-name="J" unicode="J" 
d="M78 721h94v-672c0 -168 -57 -247 -199 -247h-36v83h29c82 0 112 41 112 164v672z" />
    <glyph glyph-name="K" unicode="K" horiz-adv-x="631" 
d="M78 721h94v-306l311 306h121l-344 -336l368 -385h-123l-333 346v-346h-94v721z" />
    <glyph glyph-name="L" unicode="L" horiz-adv-x="521" 
d="M78 721h94v-640h338v-81h-432v721z" />
    <glyph glyph-name="M" unicode="M" horiz-adv-x="790" 
d="M78 721h140l177 -492l177 492h140v-721h-91v633l-179 -495h-94l-178 495v-633h-92v721z" />
    <glyph glyph-name="N" unicode="N" horiz-adv-x="681" 
d="M78 721h127l307 -604v604h91v-721h-127l-306 603v-603h-92v721z" />
    <glyph glyph-name="O" unicode="O" horiz-adv-x="737" 
d="M368 654c-134 0 -222 -110 -222 -295c0 -179 84 -295 222 -295c134 0 221 112 221 295c0 180 -84 295 -221 295zM368 733c192 0 320 -146 320 -374c0 -224 -123 -372 -320 -372c-196 0 -321 146 -321 372c0 227 126 374 321 374z" />
    <glyph glyph-name="P" unicode="P" horiz-adv-x="561" 
d="M172 641v-272h118c84 0 137 46 137 135c0 87 -49 135 -137 137h-118zM78 721h212c151 0 236 -72 236 -217c0 -140 -81 -215 -236 -215h-118v-289h-94v721z" />
    <glyph glyph-name="Q" unicode="Q" horiz-adv-x="737" 
d="M368 654c-134 0 -222 -110 -222 -295c0 -179 84 -295 222 -295c134 0 221 112 221 295c0 180 -84 295 -221 295zM499 12l124 -139h-113l-103 116c-10 -1 -18 -1 -24 -2c-204 0 -336 134 -336 372c0 227 126 374 321 374c192 0 320 -146 320 -374
c0 -166 -64 -290 -189 -347z" />
    <glyph glyph-name="R" unicode="R" horiz-adv-x="607" 
d="M407 337c39 -13 77 -60 116 -141l59 -196h-101l-52 184c-46 96 -80 120 -155 120h-102v-304h-94v721h212c157 0 236 -68 236 -208c0 -90 -41 -152 -119 -176zM172 641v-256h118c90 0 137 44 137 128c0 83 -46 126 -137 128h-118z" />
    <glyph glyph-name="S" unicode="S" horiz-adv-x="571" 
d="M298 654c-79 0 -160 -24 -160 -122c0 -62 30 -87 132 -108l57 -12c138 -29 205 -95 205 -214c0 -138 -91 -211 -265 -211c-64 0 -138 13 -220 43v102c73 -43 147 -68 220 -68c103 0 167 44 167 127c0 68 -36 108 -134 128l-57 12c-140 28 -199 85 -199 197
c0 126 90 205 243 205c65 0 132 -11 203 -36v-95c-71 33 -131 52 -192 52z" />
    <glyph glyph-name="T" unicode="T" horiz-adv-x="618" 
d="M16 721h586v-82h-246v-639h-94v639h-246v82z" />
    <glyph glyph-name="U" unicode="U" horiz-adv-x="673" 
d="M72 721h94v-439c0 -153 48 -218 171 -218c120 0 171 64 171 218v439h94v-451c0 -188 -91 -283 -265 -283c-173 0 -265 93 -265 283v451z" />
    <glyph glyph-name="V" unicode="V" horiz-adv-x="667" 
d="M281 0l-264 721h98l219 -608l219 608h98l-264 -721h-106z" />
    <glyph glyph-name="W" unicode="W" horiz-adv-x="931" 
d="M27 721h95l145 -610l146 610h105l146 -610l145 610h95l-174 -721h-118l-146 625l-147 -625h-118z" />
    <glyph glyph-name="X" unicode="X" horiz-adv-x="617" 
d="M40 721h101l172 -268l173 268h101l-223 -346l238 -375h-101l-195 306l-196 -306h-101l247 385z" />
    <glyph glyph-name="Y" unicode="Y" horiz-adv-x="597" 
d="M6 721h101l192 -297l191 297h101l-246 -378v-343h-94v343z" />
    <glyph glyph-name="Z" unicode="Z" horiz-adv-x="628" 
d="M42 721h545v-75l-438 -565h448v-81h-565v73l438 566h-428v82z" />
    <glyph glyph-name="bracketleft" unicode="[" horiz-adv-x="302" 
d="M78 752h197v-69h-111v-743h111v-69h-197v881z" />
    <glyph glyph-name="backslash" unicode="\" horiz-adv-x="353" 
d="M93 656l242 -739h-79l-241 739h78z" />
    <glyph glyph-name="bracketright" unicode="]" horiz-adv-x="302" 
d="M224 752v-881h-197v69h111v743h-111v69h197z" />
    <glyph glyph-name="asciicircum" unicode="^" horiz-adv-x="642" 
d="M366 656l252 -245h-93l-204 174l-205 -174h-93l252 245h91z" />
    <glyph glyph-name="underscore" unicode="_" horiz-adv-x="494" 
d="M494 -149v-63h-494v63h494z" />
    <glyph glyph-name="grave" unicode="`" horiz-adv-x="301" 
d="M130 720l131 -165h-71l-150 165h90z" />
    <glyph glyph-name="a" unicode="a" horiz-adv-x="556" 
d="M315 247c-139 0 -183 -27 -183 -99c0 -58 41 -94 111 -94c93 0 157 69 157 175v18h-85zM485 280v-280h-85v74c-38 -59 -94 -86 -180 -86c-103 0 -172 56 -174 155c0 111 80 167 234 167h120v8c0 72 -54 117 -148 117c-61 0 -116 -14 -168 -40v74c62 23 121 35 177 35
c150 0 224 -73 224 -224z" />
    <glyph glyph-name="b" unicode="b" horiz-adv-x="599" 
d="M455 245c0 117 -55 191 -146 191c-87 0 -145 -70 -145 -191c0 -115 51 -191 145 -191c91 0 146 73 146 191zM164 417c36 58 88 87 166 87c126 0 213 -105 213 -259c0 -152 -85 -257 -213 -257c-75 0 -127 24 -166 85v-73h-86v800h86v-383z" />
    <glyph glyph-name="c" unicode="c" horiz-adv-x="506" 
d="M464 473v-76c-48 25 -95 36 -146 38c-108 0 -175 -67 -175 -190c0 -115 59 -190 175 -190c48 0 98 12 146 38v-75c-47 -20 -98 -30 -156 -30c-154 0 -255 99 -255 257c0 160 99 259 261 259c50 0 105 -10 150 -31z" />
    <glyph glyph-name="d" unicode="d" horiz-adv-x="596" 
d="M433 417v383h85v-800h-85v73c-33 -55 -86 -85 -166 -85c-125 0 -213 102 -213 257c0 154 86 259 213 259c74 0 130 -27 166 -87zM142 245c0 -117 52 -191 145 -191c91 0 146 73 146 191c0 117 -55 191 -146 191c-89 0 -145 -70 -145 -191z" />
    <glyph glyph-name="e" unicode="e" horiz-adv-x="583" 
d="M533 266v-40h-392c8 -108 69 -171 185 -171c66 0 128 16 188 46v-76c-60 -25 -127 -37 -192 -37c-164 0 -270 95 -270 253c0 160 99 263 254 263c138 0 227 -90 227 -238zM448 289c0 86 -55 146 -141 146c-94 0 -154 -52 -163 -146h304z" />
    <glyph glyph-name="f" unicode="f" horiz-adv-x="319" 
d="M360 800v-68h-81c-63 0 -80 -56 -82 -118v-122h95v-63h-95v-429h-85v429h-82v63h82v113c0 111 51 193 168 195h80z" />
    <glyph glyph-name="g" unicode="g" horiz-adv-x="595" 
d="M432 252c0 114 -52 184 -146 184c-90 0 -145 -66 -145 -184c0 -116 51 -185 145 -185c92 0 146 68 146 185zM517 20c0 -165 -75 -245 -239 -245c-59 0 -111 8 -163 26v79c49 -25 96 -38 150 -38c106 0 167 48 167 163v81c-34 -58 -90 -86 -166 -86
c-126 0 -213 99 -213 252c0 149 84 252 213 252c75 0 129 -27 166 -87v75h85v-472z" />
    <glyph glyph-name="h" unicode="h" horiz-adv-x="586" 
d="M514 297v-297h-86v294c0 93 -38 138 -115 139c-93 0 -147 -58 -149 -155v-278h-86v800h86v-385c41 59 94 89 168 89c117 0 182 -70 182 -207z" />
    <glyph glyph-name="i" unicode="i" horiz-adv-x="242" 
d="M78 492h86v-492h-86v492zM78 684h86v-103h-86v103z" />
    <glyph glyph-name="j" unicode="j" horiz-adv-x="242" 
d="M78 492h86v-539c0 -122 -46 -178 -160 -178h-31v69h23c62 0 82 17 82 109v539zM78 684h86v-103h-86v103z" />
    <glyph glyph-name="k" unicode="k" horiz-adv-x="553" 
d="M78 800h86v-521l255 213h109l-276 -231l287 -261h-111l-264 240v-240h-86v800z" />
    <glyph glyph-name="l" unicode="l" horiz-adv-x="242" 
d="M78 800h86v-800h-86v800z" />
    <glyph glyph-name="m" unicode="m" horiz-adv-x="909" 
d="M486 397c41 71 100 107 181 107c109 0 170 -75 170 -207v-297h-86v294c0 92 -34 139 -107 139c-89 0 -142 -58 -144 -155v-278h-85v294c0 93 -34 139 -109 139c-87 0 -140 -61 -142 -155v-278h-86v492h86v-77c40 60 90 89 167 89c75 0 128 -37 155 -107z" />
    <glyph glyph-name="n" unicode="n" horiz-adv-x="586" 
d="M514 297v-297h-86v294c0 93 -38 138 -115 139c-93 0 -147 -58 -149 -155v-278h-86v492h86v-77c41 59 94 89 168 89c117 0 182 -70 182 -207z" />
    <glyph glyph-name="o" unicode="o" horiz-adv-x="587" 
d="M292 435c-90 0 -148 -71 -148 -190c0 -115 53 -190 148 -190c89 0 148 72 148 190c0 115 -56 190 -148 190zM292 504c148 0 239 -98 239 -259c0 -158 -88 -257 -239 -257c-147 0 -238 95 -238 257c0 160 89 259 238 259z" />
    <glyph glyph-name="p" unicode="p" horiz-adv-x="599" 
d="M164 73v-298h-86v717h86v-75c36 58 88 87 166 87c126 0 213 -105 213 -259c0 -152 -85 -257 -213 -257c-75 0 -127 24 -166 85zM455 245c0 117 -55 191 -146 191c-87 0 -145 -70 -145 -191c0 -115 51 -191 145 -191c91 0 146 73 146 191z" />
    <glyph glyph-name="q" unicode="q" horiz-adv-x="596" 
d="M142 245c0 -117 52 -191 145 -191c91 0 146 73 146 191c0 117 -55 191 -146 191c-89 0 -145 -70 -145 -191zM433 73c-33 -55 -86 -85 -166 -85c-125 0 -213 102 -213 257c0 154 86 259 213 259c74 0 130 -27 166 -87v75h85v-717h-85v298z" />
    <glyph glyph-name="r" unicode="r" horiz-adv-x="404" 
d="M382 416c-18 10 -39 16 -68 16c-97 0 -148 -62 -150 -173v-259h-86v492h86v-77c36 60 92 89 175 89c11 0 23 -1 43 -5v-83z" />
    <glyph glyph-name="s" unicode="s" horiz-adv-x="493" 
d="M420 477v-76c-51 22 -99 33 -155 35c-81 0 -128 -22 -128 -74c0 -37 20 -55 114 -74l30 -7c118 -25 167 -63 167 -146c0 -91 -82 -147 -215 -147c-52 0 -113 9 -182 30v83c65 -31 123 -45 184 -47c75 0 124 25 126 75c0 43 -16 60 -127 85l-29 6
c-105 23 -148 58 -150 139c0 91 71 145 199 145c63 0 118 -9 166 -27z" />
    <glyph glyph-name="t" unicode="t" horiz-adv-x="385" 
d="M183 640v-148h145v-63h-145v-267c0 -80 14 -95 88 -95h88v-67h-88c-129 0 -174 35 -174 162v267h-62v63h62v118z" />
    <glyph glyph-name="u" unicode="u" horiz-adv-x="586" 
d="M73 194v298h85v-295c0 -93 37 -140 115 -140c90 0 149 58 149 156v279h86v-492h-86v75c-40 -58 -94 -87 -167 -87c-120 0 -182 70 -182 206z" />
    <glyph glyph-name="v" unicode="v" horiz-adv-x="553" 
d="M24 492h90l163 -413l162 413h91l-195 -492h-116z" />
    <glyph glyph-name="w" unicode="w" horiz-adv-x="764" 
d="M34 492h85l107 -384l106 384h101l106 -384l107 384h85l-136 -492h-101l-112 403l-112 -403h-100z" />
    <glyph glyph-name="x" unicode="x" horiz-adv-x="545" 
d="M513 492l-188 -240l198 -252h-101l-151 193l-151 -193h-101l202 257l-184 235h100l138 -176l138 176h100z" />
    <glyph glyph-name="y" unicode="y" horiz-adv-x="548" 
d="M289 -66c-51 -120 -86 -142 -163 -142h-45l-23 68h50c45 0 65 9 98 91l25 57l-210 484h91l162 -385l162 385h91z" />
    <glyph glyph-name="z" unicode="z" horiz-adv-x="500" 
d="M51 492h405v-74l-321 -354h321v-64h-417v73l321 354h-309v65z" />
    <glyph glyph-name="braceleft" unicode="{" horiz-adv-x="397" 
d="M376 -91v-69h-28c-154 0 -194 33 -194 176v116c0 93 -26 128 -116 128h-29v70h29c87 0 116 30 116 127v117c0 141 36 178 194 178h28v-69h-31c-86 0 -104 -17 -106 -111v-120c0 -103 -24 -141 -93 -157c70 -18 93 -57 93 -157v-120c0 -89 17 -109 106 -109h31z" />
    <glyph glyph-name="bar" unicode="|" horiz-adv-x="235" 
d="M157 722v-930h-79v930h79z" />
    <glyph glyph-name="braceright" unicode="}" horiz-adv-x="396" 
d="M20 -91h33c87 0 104 18 104 109v120c0 101 25 139 93 157c-67 16 -93 53 -93 157v120c0 90 -17 111 -104 111h-33v69h30c155 0 193 -36 193 -178v-117c0 -97 27 -127 116 -127h28v-70h-28c-87 0 -116 -28 -116 -128v-116c0 -141 -38 -176 -193 -176h-30v69z" />
    <glyph glyph-name="asciitilde" unicode="~" horiz-adv-x="720" 
d="M239 348c108 0 154 -60 252 -60c53 0 102 20 166 71v-79c-65 -46 -114 -63 -177 -64c-113 0 -149 59 -251 59c-55 0 -106 -22 -167 -70v78c64 44 114 65 177 65z" />
    <glyph glyph-name="uni00A0" unicode="&#xa0;" horiz-adv-x="325" 
 />
    <glyph glyph-name="exclamdown" unicode="&#xa1;" horiz-adv-x="303" 
d="M198 0h-93v491h93v-491zM198 598h-93v123h93v-123z" />
    <glyph glyph-name="cent" unicode="&#xa2;" horiz-adv-x="482" 
d="M270 57v376c-90 -10 -144 -80 -144 -188c0 -105 50 -177 144 -188zM447 473v-76c-46 24 -85 36 -129 38v-380c42 2 87 16 129 38v-75c-39 -17 -82 -27 -129 -30v-125h-48v127c-148 10 -234 103 -234 255c0 150 82 245 234 258v126h48v-126c44 -2 89 -11 129 -30z" />
    <glyph glyph-name="sterling" unicode="&#xa3;" horiz-adv-x="517" 
d="M478 705v-88c-45 26 -88 39 -126 39c-89 0 -123 -36 -123 -177v-103h182v-70h-182v-225h259v-81h-461v81h109v225h-92v70h92v114c0 167 61 243 207 243c37 0 89 -10 135 -28z" />
    <glyph glyph-name="currency" unicode="&#xa4;" horiz-adv-x="596" 
d="M408 479l96 101l53 -56l-96 -99c22 -37 34 -76 34 -116c0 -42 -11 -76 -36 -114l97 -100l-53 -55l-96 100c-35 -25 -71 -37 -109 -37c-34 0 -74 10 -111 35l-96 -99l-53 55l96 100c-21 38 -34 76 -34 115c0 37 10 77 35 114l-96 100l54 55l96 -100c33 25 68 36 109 36
c36 0 75 -11 110 -35zM422 310c0 69 -53 128 -124 128c-66 0 -126 -55 -126 -128s55 -131 126 -131c69 0 124 58 124 131z" />
    <glyph glyph-name="yen" unicode="&#xa5;" horiz-adv-x="578" 
d="M528 218h-192v-218h-93v218h-193v60h193v25l-39 75h-154v59h123l-148 284h89l175 -339l175 339h89l-148 -284h123v-59h-154l-39 -75v-25h193v-60z" />
    <glyph glyph-name="brokenbar" unicode="&#xa6;" horiz-adv-x="234" 
d="M156 179v-332h-78v332h78zM156 629v-333h-78v333h78z" />
    <glyph glyph-name="section" unicode="&#xa7;" horiz-adv-x="462" 
d="M169 452c-39 -31 -56 -56 -58 -88c0 -48 16 -75 180 -166c38 29 58 55 58 88c0 46 -22 78 -180 166zM378 706v-79c-51 23 -94 36 -132 37c-55 0 -95 -23 -95 -73c0 -28 32 -61 96 -99c144 -94 177 -115 177 -192c0 -57 -26 -101 -85 -137c38 -34 53 -64 55 -108
c0 -90 -69 -148 -175 -148c-46 0 -92 8 -146 27v78c51 -23 98 -34 135 -36c62 0 100 26 100 75c0 34 -34 67 -102 109l-12 8c-128 78 -158 109 -158 177v3c0 61 30 107 85 137c-35 27 -53 60 -55 109c0 81 66 139 170 139c42 0 93 -7 142 -27z" />
    <glyph glyph-name="dieresis" unicode="&#xa8;" horiz-adv-x="432" 
d="M260 682h94v-89h-94v89zM78 682h94v-89h-94v89z" />
    <glyph glyph-name="copyright" unicode="&#xa9;" horiz-adv-x="774" 
d="M386 717c199 0 344 -171 344 -360c0 -198 -156 -357 -344 -357c-194 0 -344 165 -344 357c0 209 165 360 344 360zM386 667c-162 0 -297 -141 -297 -310c0 -174 140 -308 297 -308c170 0 297 143 297 308c0 194 -149 306 -297 310zM525 548v-62c-39 22 -79 29 -122 32
c-90 0 -146 -56 -146 -161c0 -103 55 -161 151 -161c36 0 75 8 117 31v-60c-40 -19 -82 -27 -127 -29c-130 0 -217 82 -217 219c0 134 83 218 217 218c44 0 86 -9 127 -27z" />
    <glyph glyph-name="ordfeminine" unicode="&#xaa;" horiz-adv-x="451" 
d="M62 286h319v-60h-319v60zM380 563v-217h-69v54c-26 -40 -72 -64 -130 -64c-78 0 -128 45 -130 120c0 87 58 132 175 132h85v2c0 54 -31 88 -108 88c-37 0 -81 -11 -124 -33v62c42 16 89 26 133 26c112 0 168 -55 168 -170zM252 533c-97 0 -133 -19 -133 -70
c0 -39 28 -69 84 -69c65 0 108 53 108 125v14h-59z" />
    <glyph glyph-name="guillemotleft" unicode="&#xab;" horiz-adv-x="511" 
d="M451 465v-84l-140 -118l140 -118v-83l-218 183v36zM249 465v-84l-139 -118l139 -118v-83l-217 183v36z" />
    <glyph glyph-name="logicalnot" unicode="&#xac;" horiz-adv-x="704" 
d="M31 378h595v-252h-78v178h-517v74z" />
    <glyph glyph-name="uni00AD" unicode="&#xad;" horiz-adv-x="406" 
d="M78 282h250v-72h-250v72z" />
    <glyph glyph-name="registered" unicode="&#xae;" horiz-adv-x="774" 
d="M386 667c-163 0 -298 -141 -298 -310c0 -174 140 -308 298 -308c170 0 296 143 296 308c0 194 -148 306 -296 310zM386 717c198 0 344 -171 344 -360c0 -198 -156 -357 -344 -357c-194 0 -343 165 -343 357c0 209 163 360 343 360zM373 517h-57v-134h57c65 0 92 15 92 66
c0 52 -26 65 -92 68zM376 566c106 0 163 -35 163 -115c0 -54 -32 -93 -93 -105c15 -3 32 -27 63 -76l64 -108h-80l-60 102c-37 62 -51 69 -86 71h-31v-173h-72v404h132z" />
    <glyph glyph-name="macron" unicode="&#xaf;" horiz-adv-x="434" 
d="M78 670h278v-65h-278v65z" />
    <glyph glyph-name="degree" unicode="&#xb0;" horiz-adv-x="407" 
d="M201 672c-47 0 -88 -40 -88 -93c0 -49 39 -91 88 -91c47 0 88 37 88 91c0 46 -37 93 -88 93zM201 733c101 0 144 -83 147 -154c0 -81 -63 -153 -148 -153c-83 0 -146 66 -146 153c0 84 64 154 147 154z" />
    <glyph glyph-name="plusminus" unicode="&#xb1;" horiz-adv-x="666" 
d="M372 620v-187h258v-83h-258v-187h-78v187h-258v83h258v187h78zM36 81h594v-81h-594v81z" />
    <glyph glyph-name="two.superior" unicode="&#xb2;" horiz-adv-x="375" 
d="M127 377h197v-55h-278v54c134 127 205 196 205 234c0 43 -36 72 -88 72c-31 0 -75 -24 -114 -64v60c39 34 87 55 124 55c90 0 148 -48 148 -115c0 -56 -67 -122 -194 -241z" />
    <glyph glyph-name="three.superior" unicode="&#xb3;" horiz-adv-x="382" 
d="M234 541c55 -12 90 -49 90 -101c0 -80 -61 -125 -170 -125c-36 0 -73 6 -117 20v58c32 -18 69 -24 110 -26c65 0 106 24 106 73c0 46 -32 72 -101 72h-40v52h43c57 0 89 20 89 59c0 38 -31 59 -90 59c-24 0 -69 -12 -104 -45v55c35 22 81 41 119 41
c86 0 145 -40 145 -104c0 -45 -29 -76 -80 -88z" />
    <glyph glyph-name="acute" unicode="&#xb4;" horiz-adv-x="301" 
d="M169 720h93l-151 -166h-72z" />
    <glyph glyph-name="uni00B5" unicode="&#xb5;" horiz-adv-x="605" 
d="M78 -187v679h86v-306c0 -85 42 -129 126 -129c91 0 138 48 138 148v287h86v-379c0 -36 10 -51 33 -51c6 0 13 2 32 10v-65c-24 -14 -47 -19 -69 -19c-42 0 -68 21 -77 68c-31 -44 -73 -68 -136 -68c-64 0 -106 21 -133 67v-242h-86z" />
    <glyph glyph-name="paragraph" unicode="&#xb6;" horiz-adv-x="535" 
d="M249 721h208v-815h-66v756h-88v-756h-66v407c-131 10 -209 83 -209 204c0 119 88 204 221 204z" />
    <glyph glyph-name="periodcentered" unicode="&#xb7;" horiz-adv-x="254" 
d="M78 368h98v-112h-98v112z" />
    <glyph glyph-name="cedilla" unicode="&#xb8;" horiz-adv-x="303" 
d="M189 0c33 -36 50 -65 50 -94c0 -51 -38 -79 -110 -79c-28 0 -53 3 -82 11v57c20 -10 39 -12 72 -14c36 0 56 14 56 41c0 18 -14 42 -41 78h55z" />
    <glyph glyph-name="one.superior" unicode="&#xb9;" horiz-adv-x="289" 
d="M53 372h69v295l-75 -40v56l78 39h63v-350h61v-54h-196v54z" />
    <glyph glyph-name="ordmasculine" unicode="&#xba;" horiz-adv-x="470" 
d="M74 286h320v-60h-320v60zM234 733c108 0 179 -72 179 -199c0 -122 -68 -198 -179 -198c-108 0 -179 75 -179 198c0 120 65 199 179 199zM234 678c-64 0 -107 -55 -107 -144c0 -83 41 -141 107 -141s106 59 106 141c0 87 -39 144 -106 144z" />
    <glyph glyph-name="guillemotright" unicode="&#xbb;" horiz-adv-x="511" 
d="M60 465l218 -184v-36l-218 -183v83l140 118l-140 118v84zM262 465l217 -184v-36l-217 -183v83l139 118l-139 118v84z" />
    <glyph glyph-name="onequarter" unicode="&#xbc;" horiz-adv-x="827" 
d="M557 733h74l-432 -746h-74zM679 345l-144 -204h144v204zM668 403h77v-262h63v-52h-63v-89h-66v89h-192v59zM35 372h69v295l-75 -40v56l78 39h63v-350h61v-54h-196v54z" />
    <glyph glyph-name="onehalf" unicode="&#xbd;" horiz-adv-x="808" 
d="M557 733h74l-432 -746h-74zM582 55h196v-55h-277v52c136 116 204 205 204 235c0 43 -35 71 -87 71c-33 0 -79 -26 -114 -63v60c29 33 85 56 123 56c90 0 148 -48 148 -116c0 -48 -64 -134 -193 -240zM35 372h69v295l-75 -40v56l78 39h63v-350h61v-54h-196v54z" />
    <glyph glyph-name="threequarters" unicode="&#xbe;" horiz-adv-x="870" 
d="M600 733h74l-432 -746h-74zM722 345l-144 -204h144v204zM711 403h77v-262h63v-52h-63v-89h-66v89h-192v59zM220 541c55 -12 90 -49 90 -101c0 -80 -61 -125 -170 -125c-36 0 -73 6 -117 20v58c32 -18 69 -24 110 -26c65 0 106 24 106 73c0 46 -32 72 -101 72h-40v52h43
c57 0 89 20 89 59c0 38 -31 59 -90 59c-24 0 -69 -12 -104 -45v55c35 22 81 41 119 41c86 0 145 -40 145 -104c0 -45 -29 -76 -80 -88z" />
    <glyph glyph-name="questiondown" unicode="&#xbf;" horiz-adv-x="464" 
d="M218 526h89v-74c0 -66 -11 -96 -68 -154l-42 -42c-32 -33 -50 -59 -50 -93v-3c0 -56 43 -96 111 -96c49 0 106 24 164 66v-91c-55 -36 -116 -52 -180 -52c-111 0 -189 64 -189 169c0 50 18 87 75 144l41 42c42 43 49 55 49 112v13v59zM307 622h-89v99h89v-99z" />
    <glyph glyph-name="Agrave" unicode="&#xc0;" horiz-adv-x="656" 
d="M325 909l91 -116h-71l-106 116h86zM327 624l-126 -358h253zM274 721h106l264 -721h-97l-63 184h-313l-61 -184h-99z" />
    <glyph glyph-name="Aacute" unicode="&#xc1;" horiz-adv-x="656" 
d="M330 909h86l-105 -116h-72zM327 624l-126 -358h253zM274 721h106l264 -721h-97l-63 184h-313l-61 -184h-99z" />
    <glyph glyph-name="Acircumflex" unicode="&#xc2;" horiz-adv-x="656" 
d="M284 910h87l98 -117h-65l-77 78l-77 -78h-64zM327 624l-126 -358h253zM274 721h106l264 -721h-97l-63 184h-313l-61 -184h-99z" />
    <glyph glyph-name="Atilde" unicode="&#xc3;" horiz-adv-x="656" 
d="M174 793c0 59 34 97 94 97c20 0 34 -5 62 -19l26 -14c12 -6 24 -11 34 -11c18 0 32 16 32 41v3h58c0 -56 -34 -97 -86 -97c-22 0 -36 2 -68 19l-26 15c-14 7 -24 10 -32 10c-22 0 -36 -15 -36 -41v-3h-58zM327 624l-126 -358h253zM274 721h106l264 -721h-97l-63 184h-313
l-61 -184h-99z" />
    <glyph glyph-name="Adieresis" unicode="&#xc4;" horiz-adv-x="656" 
d="M372 882h94v-89h-94v89zM190 882h94v-89h-94v89zM327 624l-126 -358h253zM274 721h106l264 -721h-97l-63 184h-313l-61 -184h-99z" />
    <glyph glyph-name="Aring" unicode="&#xc5;" horiz-adv-x="656" 
d="M402 831c0 37 -32 67 -71 67c-37 0 -70 -27 -70 -67c0 -37 29 -66 70 -66c40 0 71 28 71 66zM327 624l-126 -358h253zM380 720l264 -720h-97l-63 184h-313l-61 -184h-99l263 721h6c-45 18 -76 60 -76 110c0 65 55 121 127 121c70 0 126 -52 128 -121
c0 -50 -32 -93 -79 -111z" />
    <glyph glyph-name="Ccedilla" unicode="&#xc7;" horiz-adv-x="643" 
d="M606 665v-102c-62 60 -134 90 -215 90c-155 0 -245 -101 -245 -294c0 -186 83 -293 245 -293c79 0 149 28 215 91v-102c-58 -41 -121 -63 -195 -67c26 -30 39 -56 39 -81c0 -51 -38 -79 -110 -79c-28 0 -53 3 -82 11v57c20 -10 39 -12 72 -14c36 0 56 14 56 41
c0 16 -11 36 -32 65c-190 13 -307 151 -307 371c0 231 129 374 338 374c85 0 157 -23 221 -68z" />
    <glyph glyph-name="Egrave" unicode="&#xc8;" horiz-adv-x="559" 
d="M299 909l91 -116h-71l-106 116h86zM78 721h438v-82h-344v-214h330v-82h-330v-262h353v-81h-447v721z" />
    <glyph glyph-name="Eacute" unicode="&#xc9;" horiz-adv-x="559" 
d="M304 909h86l-105 -116h-72zM78 721h438v-82h-344v-214h330v-82h-330v-262h353v-81h-447v721z" />
    <glyph glyph-name="Ecircumflex" unicode="&#xca;" horiz-adv-x="559" 
d="M258 910h87l98 -117h-65l-77 78l-77 -78h-64zM78 721h438v-82h-344v-214h330v-82h-330v-262h353v-81h-447v721z" />
    <glyph glyph-name="Edieresis" unicode="&#xcb;" horiz-adv-x="559" 
d="M346 882h94v-89h-94v89zM164 882h94v-89h-94v89zM78 721h438v-82h-344v-214h330v-82h-330v-262h353v-81h-447v721z" />
    <glyph glyph-name="Igrave" unicode="&#xcc;" 
d="M122 909l92 -116h-72l-106 116h86zM78 721h94v-721h-94v721z" />
    <glyph glyph-name="Iacute" unicode="&#xcd;" 
d="M128 909h86l-106 -116h-72zM78 721h94v-721h-94v721z" />
    <glyph glyph-name="Icircumflex" unicode="&#xce;" 
d="M82 910h86l98 -117h-64l-78 78l-76 -78h-64zM78 721h94v-721h-94v721z" />
    <glyph glyph-name="Idieresis" unicode="&#xcf;" 
d="M169 882h94v-89h-94v89zM-13 882h94v-89h-94v89zM78 721h94v-721h-94v721z" />
    <glyph glyph-name="Eth" unicode="&#xd0;" horiz-adv-x="710" 
d="M-1 373h79v348h193c266 0 390 -110 390 -361c0 -247 -121 -360 -390 -360h-193v301h-79v72zM172 641v-268h77v-72h-77v-222h114c191 0 276 87 276 281c0 193 -85 281 -276 281h-114z" />
    <glyph glyph-name="Ntilde" unicode="&#xd1;" horiz-adv-x="681" 
d="M188 793c0 59 32 97 94 97c20 0 34 -5 60 -19l28 -14c12 -6 22 -11 32 -11c20 0 34 16 34 41v3h58c0 -56 -36 -97 -88 -97c-20 0 -34 2 -68 19l-26 15c-14 7 -24 10 -32 10c-20 0 -34 -15 -34 -41v-3h-58zM78 721h127l307 -604v604h91v-721h-127l-306 603v-603h-92v721z
" />
    <glyph glyph-name="Ograve" unicode="&#xd2;" horiz-adv-x="737" 
d="M365 909l91 -116h-71l-106 116h86zM368 654c-134 0 -222 -110 -222 -295c0 -179 84 -295 222 -295c134 0 221 112 221 295c0 180 -84 295 -221 295zM368 733c192 0 320 -146 320 -374c0 -224 -123 -372 -320 -372c-196 0 -321 146 -321 372c0 227 126 374 321 374z" />
    <glyph glyph-name="Oacute" unicode="&#xd3;" horiz-adv-x="737" 
d="M370 909h86l-105 -116h-72zM368 654c-134 0 -222 -110 -222 -295c0 -179 84 -295 222 -295c134 0 221 112 221 295c0 180 -84 295 -221 295zM368 733c192 0 320 -146 320 -374c0 -224 -123 -372 -320 -372c-196 0 -321 146 -321 372c0 227 126 374 321 374z" />
    <glyph glyph-name="Ocircumflex" unicode="&#xd4;" horiz-adv-x="737" 
d="M324 910h87l98 -117h-65l-77 78l-77 -78h-64zM368 654c-134 0 -222 -110 -222 -295c0 -179 84 -295 222 -295c134 0 221 112 221 295c0 180 -84 295 -221 295zM368 733c192 0 320 -146 320 -374c0 -224 -123 -372 -320 -372c-196 0 -321 146 -321 372
c0 227 126 374 321 374z" />
    <glyph glyph-name="Otilde" unicode="&#xd5;" horiz-adv-x="737" 
d="M214 793c0 59 34 97 94 97c20 0 34 -5 62 -19l26 -14c12 -6 24 -11 34 -11c18 0 32 16 32 41v3h58c0 -56 -34 -97 -86 -97c-22 0 -36 2 -68 19l-26 15c-14 7 -24 10 -32 10c-22 0 -36 -15 -36 -41v-3h-58zM368 654c-134 0 -222 -110 -222 -295c0 -179 84 -295 222 -295
c134 0 221 112 221 295c0 180 -84 295 -221 295zM368 733c192 0 320 -146 320 -374c0 -224 -123 -372 -320 -372c-196 0 -321 146 -321 372c0 227 126 374 321 374z" />
    <glyph glyph-name="Odieresis" unicode="&#xd6;" horiz-adv-x="737" 
d="M412 882h94v-89h-94v89zM230 882h94v-89h-94v89zM368 654c-134 0 -222 -110 -222 -295c0 -179 84 -295 222 -295c134 0 221 112 221 295c0 180 -84 295 -221 295zM368 733c192 0 320 -146 320 -374c0 -224 -123 -372 -320 -372c-196 0 -321 146 -321 372
c0 227 126 374 321 374z" />
    <glyph glyph-name="multiply" unicode="&#xd7;" horiz-adv-x="604" 
d="M570 531l-212 -222l212 -220l-55 -60l-213 222l-213 -222l-55 60l212 220l-212 222l55 58l213 -222l213 222z" />
    <glyph glyph-name="Oslash" unicode="&#xd8;" horiz-adv-x="752" 
d="M560 536l-332 -408c38 -42 87 -64 147 -64c134 0 221 112 221 295c0 70 -11 132 -36 177zM522 591c-36 39 -86 63 -147 63c-134 0 -223 -110 -223 -295c0 -70 11 -132 37 -178zM127 105c-50 65 -73 152 -73 254c0 227 126 374 321 374c78 0 150 -23 203 -72l75 91l48 -42
l-79 -97c47 -65 71 -150 73 -254c0 -224 -124 -372 -320 -372c-76 0 -146 19 -204 71l-76 -91l-47 41z" />
    <glyph glyph-name="Ugrave" unicode="&#xd9;" horiz-adv-x="673" 
d="M334 909l92 -116h-72l-106 116h86zM72 721h94v-439c0 -153 48 -218 171 -218c120 0 171 64 171 218v439h94v-451c0 -188 -91 -283 -265 -283c-173 0 -265 93 -265 283v451z" />
    <glyph glyph-name="Uacute" unicode="&#xda;" horiz-adv-x="673" 
d="M340 909h86l-106 -116h-72zM72 721h94v-439c0 -153 48 -218 171 -218c120 0 171 64 171 218v439h94v-451c0 -188 -91 -283 -265 -283c-173 0 -265 93 -265 283v451z" />
    <glyph glyph-name="Ucircumflex" unicode="&#xdb;" horiz-adv-x="673" 
d="M294 910h86l98 -117h-64l-78 78l-76 -78h-64zM72 721h94v-439c0 -153 48 -218 171 -218c120 0 171 64 171 218v439h94v-451c0 -188 -91 -283 -265 -283c-173 0 -265 93 -265 283v451z" />
    <glyph glyph-name="Udieresis" unicode="&#xdc;" horiz-adv-x="673" 
d="M381 882h94v-89h-94v89zM199 882h94v-89h-94v89zM72 721h94v-439c0 -153 48 -218 171 -218c120 0 171 64 171 218v439h94v-451c0 -188 -91 -283 -265 -283c-173 0 -265 93 -265 283v451z" />
    <glyph glyph-name="Yacute" unicode="&#xdd;" horiz-adv-x="597" 
d="M301 909h86l-105 -116h-72zM6 721h101l192 -297l191 297h101l-246 -378v-343h-94v343z" />
    <glyph glyph-name="Thorn" unicode="&#xde;" horiz-adv-x="561" 
d="M78 721h94v-127h118c152 0 236 -72 236 -216c0 -141 -79 -213 -236 -216h-118v-162h-94v721zM172 513v-270h118c84 0 137 46 137 135c0 82 -47 135 -137 135h-118z" />
    <glyph glyph-name="germandbls" unicode="&#xdf;" horiz-adv-x="589" 
d="M78 518c0 128 77 204 212 204c127 0 196 -74 200 -221c-91 -5 -148 -64 -148 -126c0 -29 15 -25 57 -52l26 -18c102 -68 122 -94 122 -162c0 -108 -68 -156 -203 -156c-39 0 -80 8 -126 22v80c49 -20 87 -28 132 -30c70 0 109 16 109 76c0 40 -10 55 -74 95l-42 27
c-60 38 -85 48 -85 108c0 84 55 159 147 179c-4 62 -45 103 -117 103c-79 0 -121 -44 -123 -131v-516h-87v518z" />
    <glyph glyph-name="agrave" unicode="&#xe0;" horiz-adv-x="556" 
d="M225 729l131 -165h-71l-150 165h90zM315 247c-139 0 -183 -27 -183 -99c0 -58 41 -94 111 -94c93 0 157 69 157 175v18h-85zM485 280v-280h-85v74c-38 -59 -94 -86 -180 -86c-103 0 -172 56 -174 155c0 111 80 167 234 167h120v8c0 72 -54 117 -148 117
c-61 0 -116 -14 -168 -40v74c62 23 121 35 177 35c150 0 224 -73 224 -224z" />
    <glyph glyph-name="aacute" unicode="&#xe1;" horiz-adv-x="556" 
d="M319 730h93l-151 -166h-72zM315 247c-139 0 -183 -27 -183 -99c0 -58 41 -94 111 -94c93 0 157 69 157 175v18h-85zM485 280v-280h-85v74c-38 -59 -94 -86 -180 -86c-103 0 -172 56 -174 155c0 111 80 167 234 167h120v8c0 72 -54 117 -148 117c-61 0 -116 -14 -168 -40
v74c62 23 121 35 177 35c150 0 224 -73 224 -224z" />
    <glyph glyph-name="acircumflex" unicode="&#xe2;" horiz-adv-x="556" 
d="M232 730h68l114 -166h-66l-82 108l-84 -108h-64zM315 247c-139 0 -183 -27 -183 -99c0 -58 41 -94 111 -94c93 0 157 69 157 175v18h-85zM485 280v-280h-85v74c-38 -59 -94 -86 -180 -86c-103 0 -172 56 -174 155c0 111 80 167 234 167h120v8c0 72 -54 117 -148 117
c-61 0 -116 -14 -168 -40v74c62 23 121 35 177 35c150 0 224 -73 224 -224z" />
    <glyph glyph-name="atilde" unicode="&#xe3;" horiz-adv-x="556" 
d="M418 688c0 -57 -18 -124 -93 -124c-23 0 -42 8 -61 27l-28 24c-10 11 -20 14 -30 17c-24 0 -34 -20 -36 -68h-58c0 76 32 123 90 124c24 0 44 -8 66 -27l26 -24c12 -12 24 -18 32 -18c22 0 32 18 34 69h58zM315 247c-139 0 -183 -27 -183 -99c0 -58 41 -94 111 -94
c93 0 157 69 157 175v18h-85zM485 280v-280h-85v74c-38 -59 -94 -86 -180 -86c-103 0 -172 56 -174 155c0 111 80 167 234 167h120v8c0 72 -54 117 -148 117c-61 0 -116 -14 -168 -40v74c62 23 121 35 177 35c150 0 224 -73 224 -224z" />
    <glyph glyph-name="adieresis" unicode="&#xe4;" horiz-adv-x="556" 
d="M310 653h94v-89h-94v89zM128 653h94v-89h-94v89zM315 247c-139 0 -183 -27 -183 -99c0 -58 41 -94 111 -94c93 0 157 69 157 175v18h-85zM485 280v-280h-85v74c-38 -59 -94 -86 -180 -86c-103 0 -172 56 -174 155c0 111 80 167 234 167h120v8c0 72 -54 117 -148 117
c-61 0 -116 -14 -168 -40v74c62 23 121 35 177 35c150 0 224 -73 224 -224z" />
    <glyph glyph-name="aring" unicode="&#xe5;" horiz-adv-x="556" 
d="M336 684c0 37 -32 67 -71 67c-37 0 -70 -27 -70 -67c0 -37 29 -66 70 -66c40 0 71 28 71 66zM393 684c0 -66 -57 -120 -128 -120c-70 0 -127 53 -127 120c0 65 55 121 127 121c70 0 126 -52 128 -121zM315 247c-139 0 -183 -27 -183 -99c0 -58 41 -94 111 -94
c93 0 157 69 157 175v18h-85zM485 280v-280h-85v74c-38 -59 -94 -86 -180 -86c-103 0 -172 56 -174 155c0 111 80 167 234 167h120v8c0 72 -54 117 -148 117c-61 0 -116 -14 -168 -40v74c62 23 121 35 177 35c150 0 224 -73 224 -224z" />
    <glyph glyph-name="ccedilla" unicode="&#xe7;" horiz-adv-x="506" 
d="M464 473v-76c-48 25 -95 36 -146 38c-108 0 -175 -67 -175 -190c0 -115 59 -190 175 -190c48 0 98 12 146 38v-75c-40 -17 -83 -27 -130 -29c26 -31 40 -57 40 -83c0 -51 -38 -79 -110 -79c-28 0 -53 3 -82 11v57c20 -10 39 -12 72 -14c36 0 56 14 56 41
c0 16 -11 37 -33 68c-137 12 -224 108 -224 255c0 160 99 259 261 259c50 0 105 -10 150 -31z" />
    <glyph glyph-name="egrave" unicode="&#xe8;" horiz-adv-x="583" 
d="M245 729l131 -165h-71l-150 165h90zM533 266v-40h-392c8 -108 69 -171 185 -171c66 0 128 16 188 46v-76c-60 -25 -127 -37 -192 -37c-164 0 -270 95 -270 253c0 160 99 263 254 263c138 0 227 -90 227 -238zM448 289c0 86 -55 146 -141 146c-94 0 -154 -52 -163 -146
h304z" />
    <glyph glyph-name="eacute" unicode="&#xe9;" horiz-adv-x="583" 
d="M350 730h93l-151 -166h-72zM533 266v-40h-392c8 -108 69 -171 185 -171c66 0 128 16 188 46v-76c-60 -25 -127 -37 -192 -37c-164 0 -270 95 -270 253c0 160 99 263 254 263c138 0 227 -90 227 -238zM448 289c0 86 -55 146 -141 146c-94 0 -154 -52 -163 -146h304z" />
    <glyph glyph-name="ecircumflex" unicode="&#xea;" horiz-adv-x="583" 
d="M258 730h68l114 -166h-64l-84 108l-84 -108h-64zM533 266v-40h-392c8 -108 69 -171 185 -171c66 0 128 16 188 46v-76c-60 -25 -127 -37 -192 -37c-164 0 -270 95 -270 253c0 160 99 263 254 263c138 0 227 -90 227 -238zM448 289c0 86 -55 146 -141 146
c-94 0 -154 -52 -163 -146h304z" />
    <glyph glyph-name="edieresis" unicode="&#xeb;" horiz-adv-x="583" 
d="M336 653h94v-89h-94v89zM154 653h94v-89h-94v89zM533 266v-40h-392c8 -108 69 -171 185 -171c66 0 128 16 188 46v-76c-60 -25 -127 -37 -192 -37c-164 0 -270 95 -270 253c0 160 99 263 254 263c138 0 227 -90 227 -238zM448 289c0 86 -55 146 -141 146
c-94 0 -154 -52 -163 -146h304z" />
    <glyph glyph-name="igrave" unicode="&#xec;" horiz-adv-x="242" 
d="M100 729l132 -165h-72l-150 165h90zM78 492h86v-492h-86v492z" />
    <glyph glyph-name="iacute" unicode="&#xed;" horiz-adv-x="242" 
d="M140 730h92l-150 -166h-72zM78 492h86v-492h-86v492z" />
    <glyph glyph-name="icircumflex" unicode="&#xee;" horiz-adv-x="242" 
d="M87 730h68l114 -166h-65l-83 108l-84 -108h-64zM78 492h86v-492h-86v492z" />
    <glyph glyph-name="idieresis" unicode="&#xef;" horiz-adv-x="242" 
d="M165 653h94v-89h-94v89zM-17 653h94v-89h-94v89zM78 492h86v-492h-86v492z" />
    <glyph glyph-name="eth" unicode="&#xf0;" horiz-adv-x="584" 
d="M387 402c-29 9 -56 12 -82 14c-102 0 -164 -65 -164 -181c0 -109 57 -180 148 -180s149 72 149 180c0 71 -16 125 -51 167zM385 537c78 -83 143 -199 143 -302c0 -149 -97 -247 -239 -247c-141 0 -238 98 -238 247c0 143 93 247 231 247c12 0 25 -1 52 -5l-106 116
l-148 -47l-16 43l131 41l-84 90h105l59 -64l155 48l15 -42l-136 -43z" />
    <glyph glyph-name="ntilde" unicode="&#xf1;" horiz-adv-x="586" 
d="M449 688c0 -57 -19 -124 -94 -124c-22 0 -41 8 -61 27l-27 24c-11 11 -21 14 -31 17c-23 0 -33 -20 -35 -68h-58c0 76 32 123 90 124c23 0 43 -8 65 -27l26 -24c13 -12 24 -18 32 -18c22 0 33 18 35 69h58zM514 297v-297h-86v294c0 93 -38 138 -115 139
c-93 0 -147 -58 -149 -155v-278h-86v492h86v-77c41 59 94 89 168 89c117 0 182 -70 182 -207z" />
    <glyph glyph-name="ograve" unicode="&#xf2;" horiz-adv-x="587" 
d="M272 729l131 -165h-71l-150 165h90zM292 435c-90 0 -148 -71 -148 -190c0 -115 53 -190 148 -190c89 0 148 72 148 190c0 115 -56 190 -148 190zM292 504c148 0 239 -98 239 -259c0 -158 -88 -257 -239 -257c-147 0 -238 95 -238 257c0 160 89 259 238 259z" />
    <glyph glyph-name="oacute" unicode="&#xf3;" horiz-adv-x="587" 
d="M311 730h93l-151 -166h-72zM292 435c-90 0 -148 -71 -148 -190c0 -115 53 -190 148 -190c89 0 148 72 148 190c0 115 -56 190 -148 190zM292 504c148 0 239 -98 239 -259c0 -158 -88 -257 -239 -257c-147 0 -238 95 -238 257c0 160 89 259 238 259z" />
    <glyph glyph-name="ocircumflex" unicode="&#xf4;" horiz-adv-x="587" 
d="M258 730h68l114 -166h-64l-84 108l-84 -108h-64zM292 435c-90 0 -148 -71 -148 -190c0 -115 53 -190 148 -190c89 0 148 72 148 190c0 115 -56 190 -148 190zM292 504c148 0 239 -98 239 -259c0 -158 -88 -257 -239 -257c-147 0 -238 95 -238 257c0 160 89 259 238 259z
" />
    <glyph glyph-name="otilde" unicode="&#xf5;" horiz-adv-x="587" 
d="M446 688c0 -57 -19 -124 -94 -124c-23 0 -42 8 -62 27l-26 24c-12 11 -22 14 -32 17c-22 0 -32 -20 -34 -68h-58c0 76 32 123 90 124c22 0 42 -8 64 -27l26 -24c14 -12 24 -18 32 -18c22 0 34 18 36 69h58zM292 435c-90 0 -148 -71 -148 -190c0 -115 53 -190 148 -190
c89 0 148 72 148 190c0 115 -56 190 -148 190zM292 504c148 0 239 -98 239 -259c0 -158 -88 -257 -239 -257c-147 0 -238 95 -238 257c0 160 89 259 238 259z" />
    <glyph glyph-name="odieresis" unicode="&#xf6;" horiz-adv-x="587" 
d="M336 653h94v-89h-94v89zM154 653h94v-89h-94v89zM292 435c-90 0 -148 -71 -148 -190c0 -115 53 -190 148 -190c89 0 148 72 148 190c0 115 -56 190 -148 190zM292 504c148 0 239 -98 239 -259c0 -158 -88 -257 -239 -257c-147 0 -238 95 -238 257c0 160 89 259 238 259z
" />
    <glyph glyph-name="divide" unicode="&#xf7;" horiz-adv-x="649" 
d="M267 498h114v-108h-114v108zM267 173h114v-108h-114v108zM27 319h595v-75h-595v75z" />
    <glyph glyph-name="oslash" unicode="&#xf8;" horiz-adv-x="602" 
d="M429 351l-226 -260c25 -25 57 -34 97 -36c89 0 148 72 148 190c0 43 -6 79 -19 106zM396 399c-24 23 -56 36 -96 36c-91 0 -148 -71 -148 -196c0 -41 3 -71 18 -100zM112 72c-34 45 -51 103 -51 173c0 160 90 259 239 259c55 0 106 -15 148 -45l65 73l43 -35l-67 -78
c32 -45 49 -103 49 -174c0 -158 -87 -257 -238 -257c-58 0 -109 13 -148 44l-65 -73l-45 34z" />
    <glyph glyph-name="ugrave" unicode="&#xf9;" horiz-adv-x="586" 
d="M270 729l131 -165h-71l-150 165h90zM73 194v298h85v-295c0 -93 37 -140 115 -140c90 0 149 58 149 156v279h86v-492h-86v75c-40 -58 -94 -87 -167 -87c-120 0 -182 70 -182 206z" />
    <glyph glyph-name="uacute" unicode="&#xfa;" horiz-adv-x="586" 
d="M309 730h93l-151 -166h-72zM73 194v298h85v-295c0 -93 37 -140 115 -140c90 0 149 58 149 156v279h86v-492h-86v75c-40 -58 -94 -87 -167 -87c-120 0 -182 70 -182 206z" />
    <glyph glyph-name="ucircumflex" unicode="&#xfb;" horiz-adv-x="586" 
d="M256 730h68l114 -166h-64l-84 108l-84 -108h-64zM73 194v298h85v-295c0 -93 37 -140 115 -140c90 0 149 58 149 156v279h86v-492h-86v75c-40 -58 -94 -87 -167 -87c-120 0 -182 70 -182 206z" />
    <glyph glyph-name="udieresis" unicode="&#xfc;" horiz-adv-x="586" 
d="M334 653h94v-89h-94v89zM152 653h94v-89h-94v89zM73 194v298h85v-295c0 -93 37 -140 115 -140c90 0 149 58 149 156v279h86v-492h-86v75c-40 -58 -94 -87 -167 -87c-120 0 -182 70 -182 206z" />
    <glyph glyph-name="yacute" unicode="&#xfd;" horiz-adv-x="548" 
d="M326 730h92l-150 -166h-72zM289 -66c-51 -120 -86 -142 -163 -142h-45l-23 68h50c45 0 65 9 98 91l25 57l-210 484h91l162 -385l162 385h91z" />
    <glyph glyph-name="thorn" unicode="&#xfe;" horiz-adv-x="599" 
d="M164 73v-298h-86v1025h86v-383c36 58 88 87 166 87c126 0 213 -105 213 -259c0 -152 -85 -257 -213 -257c-75 0 -127 24 -166 85zM455 245c0 117 -55 191 -146 191c-87 0 -145 -70 -145 -191c0 -115 51 -191 145 -191c91 0 146 73 146 191z" />
    <glyph glyph-name="ydieresis" unicode="&#xff;" horiz-adv-x="548" 
d="M318 653h94v-89h-94v89zM136 653h94v-89h-94v89zM289 -66c-51 -120 -86 -142 -163 -142h-45l-23 68h50c45 0 65 9 98 91l25 57l-210 484h91l162 -385l162 385h91z" />
    <glyph glyph-name="Cacute" unicode="&#x106;" horiz-adv-x="643" 
d="M433 916h86l-105 -116h-72zM606 665v-102c-62 60 -134 90 -215 90c-155 0 -245 -101 -245 -294c0 -186 83 -293 245 -293c79 0 149 28 215 91v-102c-65 -46 -136 -68 -221 -68c-208 0 -338 140 -338 372c0 231 129 374 338 374c85 0 157 -23 221 -68z" />
    <glyph glyph-name="cacute" unicode="&#x107;" horiz-adv-x="506" 
d="M346 730h93l-151 -166h-72zM464 473v-76c-48 25 -95 36 -146 38c-108 0 -175 -67 -175 -190c0 -115 59 -190 175 -190c48 0 98 12 146 38v-75c-47 -20 -98 -30 -156 -30c-154 0 -255 99 -255 257c0 160 99 259 261 259c50 0 105 -10 150 -31z" />
    <glyph glyph-name="Ccaron" unicode="&#x10c;" horiz-adv-x="643" 
d="M332 799l-96 117h64l76 -78l76 78h66l-98 -117h-88zM606 665v-102c-62 60 -134 90 -215 90c-155 0 -245 -101 -245 -294c0 -186 83 -293 245 -293c79 0 149 28 215 91v-102c-65 -46 -136 -68 -221 -68c-208 0 -338 140 -338 372c0 231 129 374 338 374
c85 0 157 -23 221 -68z" />
    <glyph glyph-name="ccaron" unicode="&#x10d;" horiz-adv-x="506" 
d="M278 564l-114 166h64l84 -108l84 108h64l-114 -166h-68zM464 473v-76c-48 25 -95 36 -146 38c-108 0 -175 -67 -175 -190c0 -115 59 -190 175 -190c48 0 98 12 146 38v-75c-47 -20 -98 -30 -156 -30c-154 0 -255 99 -255 257c0 160 99 259 261 259c50 0 105 -10 150 -31z
" />
    <glyph glyph-name="dcroat" unicode="&#x111;" horiz-adv-x="598" 
d="M417 417v184h-151v55h151v65h86v-65h71v-55h-71v-601h-86v73c-33 -55 -85 -85 -166 -85c-124 0 -213 102 -213 257c0 154 87 259 213 259c74 0 130 -27 166 -87zM127 245c0 -117 52 -191 145 -191c90 0 145 73 145 191c0 117 -55 191 -145 191c-89 0 -145 -70 -145 -191z
" />
    <glyph glyph-name="Gbreve" unicode="&#x11e;" horiz-adv-x="706" 
d="M250 906h56c7 -31 38 -49 90 -49c49 0 78 15 90 49h55c-6 -68 -56 -106 -145 -106c-88 0 -138 34 -146 106zM559 102v195h-153v79h246v-309c-72 -54 -159 -80 -259 -80c-217 0 -346 136 -346 372c0 237 130 374 346 374c88 0 173 -22 241 -68v-103
c-68 60 -146 91 -234 91c-167 0 -254 -97 -254 -294c0 -193 84 -293 254 -293c67 0 118 11 159 36z" />
    <glyph glyph-name="gbreve" unicode="&#x11f;" horiz-adv-x="595" 
d="M140 690h54c6 -40 32 -66 90 -66c52 0 84 21 90 66h56c-6 -80 -52 -126 -146 -126c-88 0 -138 42 -144 126zM432 252c0 114 -52 184 -146 184c-90 0 -145 -66 -145 -184c0 -116 51 -185 145 -185c92 0 146 68 146 185zM517 20c0 -165 -75 -245 -239 -245
c-59 0 -111 8 -163 26v79c49 -25 96 -38 150 -38c106 0 167 48 167 163v81c-34 -58 -90 -86 -166 -86c-126 0 -213 99 -213 252c0 149 84 252 213 252c75 0 129 -27 166 -87v75h85v-472z" />
    <glyph glyph-name="Idotaccent" unicode="&#x130;" 
d="M78 883h94v-90h-94v90zM78 721h94v-721h-94v721z" />
    <glyph glyph-name="dotlessi" unicode="&#x131;" horiz-adv-x="242" 
d="M78 492h86v-492h-86v492z" />
    <glyph glyph-name="Lslash" unicode="&#x141;" horiz-adv-x="562" 
d="M118 721h94v-298l146 106l37 -54l-183 -132v-262h338v-81h-432v276l-68 -52l-36 53l104 77v367z" />
    <glyph glyph-name="lslash" unicode="&#x142;" horiz-adv-x="316" 
d="M116 800h85v-381l58 40l35 -47l-93 -62v-350h-85v292l-57 -39l-35 47l92 62v438z" />
    <glyph glyph-name="Scedilla" unicode="&#x15e;" horiz-adv-x="571" 
d="M490 697v-95c-71 33 -131 52 -192 52c-99 0 -159 -38 -160 -119v-3c0 -62 30 -87 132 -108l57 -12c138 -29 205 -95 205 -214c0 -124 -73 -195 -214 -209c26 -31 40 -56 40 -82c0 -51 -38 -79 -110 -79c-28 0 -54 3 -82 11v57c20 -10 38 -12 72 -14c36 0 56 14 56 41
c0 15 -11 35 -31 64c-63 1 -136 14 -216 43v102c73 -43 147 -68 220 -68c103 0 167 44 167 127c0 68 -36 107 -134 128l-57 12c-140 28 -199 85 -199 197c0 126 90 205 243 205c65 0 132 -11 203 -36z" />
    <glyph glyph-name="scedilla" unicode="&#x15f;" horiz-adv-x="493" 
d="M420 477v-76c-51 22 -99 33 -155 35c-81 0 -128 -22 -128 -74c0 -37 20 -55 114 -74l30 -7c118 -25 167 -63 167 -146c0 -79 -62 -132 -165 -144c28 -32 42 -59 42 -85c0 -51 -38 -79 -110 -79c-28 0 -53 3 -82 11v57c20 -10 39 -12 72 -14c36 0 56 14 56 41
c0 16 -11 36 -32 66c-51 1 -111 10 -178 30v83c65 -31 123 -45 184 -47c75 0 124 25 126 75c0 43 -16 60 -127 85l-29 6c-105 23 -148 58 -150 139c0 91 71 145 199 145c63 0 118 -9 166 -27z" />
    <glyph glyph-name="Scaron" unicode="&#x160;" horiz-adv-x="571" 
d="M244 793l-97 117h64l76 -78l77 78h65l-98 -117h-87zM298 654c-79 0 -160 -24 -160 -122c0 -62 30 -87 132 -108l57 -12c138 -29 205 -95 205 -214c0 -138 -91 -211 -265 -211c-64 0 -138 13 -220 43v102c73 -43 147 -68 220 -68c103 0 167 44 167 127
c0 68 -36 108 -134 128l-57 12c-140 28 -199 85 -199 197c0 126 90 205 243 205c65 0 132 -11 203 -36v-95c-71 33 -131 52 -192 52z" />
    <glyph glyph-name="scaron" unicode="&#x161;" horiz-adv-x="493" 
d="M216 564l-114 166h64l84 -108l82 108h66l-114 -166h-68zM420 477v-76c-51 22 -99 33 -155 35c-81 0 -128 -22 -128 -74c0 -37 20 -55 114 -74l30 -7c118 -25 167 -63 167 -146c0 -91 -82 -147 -215 -147c-52 0 -113 9 -182 30v83c65 -31 123 -45 184 -47
c75 0 124 25 126 75c0 43 -16 60 -127 85l-29 6c-105 23 -148 58 -150 139c0 91 71 145 199 145c63 0 118 -9 166 -27z" />
    <glyph glyph-name="Ydieresis" unicode="&#x178;" horiz-adv-x="597" 
d="M342 882h94v-89h-94v89zM160 882h94v-89h-94v89zM6 721h101l192 -297l191 297h101l-246 -378v-343h-94v343z" />
    <glyph glyph-name="Zcaron" unicode="&#x17d;" horiz-adv-x="628" 
d="M270 793l-96 117h64l76 -78l76 78h66l-98 -117h-88zM42 721h545v-75l-438 -565h448v-81h-565v73l438 566h-428v82z" />
    <glyph glyph-name="zcaron" unicode="&#x17e;" horiz-adv-x="500" 
d="M214 564l-114 166h64l84 -108l82 108h66l-114 -166h-68zM51 492h405v-74l-321 -354h321v-64h-417v73l321 354h-309v65z" />
    <glyph glyph-name="longs" unicode="&#x17f;" horiz-adv-x="292" 
d="M197 614v-614h-85v429h-82v63h82v113c0 111 51 193 168 195h80v-68h-81c-63 0 -80 -56 -82 -118z" />
    <glyph glyph-name="florin" unicode="&#x192;" horiz-adv-x="598" 
d="M587 667v-72c-23 17 -45 24 -75 26c-58 0 -93 -33 -109 -112l-27 -137h133v-63h-148l-59 -279c-35 -166 -84 -217 -200 -217c-35 0 -66 5 -95 19v73c31 -20 61 -29 91 -29c58 0 88 31 111 133l64 300h-115v63h129l30 145c21 105 84 167 178 167c32 0 64 -6 92 -17z" />
    <glyph glyph-name="circumflex" unicode="&#x2c6;" horiz-adv-x="381" 
d="M156 720h68l114 -166h-65l-83 108l-84 -108h-64z" />
    <glyph glyph-name="caron" unicode="&#x2c7;" horiz-adv-x="386" 
d="M159 554l-114 166h64l84 -108l83 108h65l-114 -166h-68z" />
    <glyph glyph-name="breve" unicode="&#x2d8;" horiz-adv-x="419" 
d="M64 706h55c6 -40 32 -66 90 -66c52 0 83 21 90 66h56c-6 -80 -53 -126 -146 -126c-89 0 -138 42 -145 126z" />
    <glyph glyph-name="dotaccent" unicode="&#x2d9;" horiz-adv-x="251" 
d="M78 682h95v-90h-95v90z" />
    <glyph glyph-name="ring" unicode="&#x2da;" horiz-adv-x="380" 
d="M258 669c0 37 -32 67 -71 67c-37 0 -70 -27 -70 -67c0 -37 29 -66 70 -66c40 0 71 28 71 66zM315 669c0 -66 -57 -120 -128 -120c-70 0 -127 53 -127 120c0 65 55 121 127 121c70 0 126 -52 128 -121z" />
    <glyph glyph-name="ogonek" unicode="&#x2db;" horiz-adv-x="282" 
d="M111 0h55c-28 -35 -41 -59 -41 -79c0 -26 14 -40 50 -40c19 0 38 3 58 13v-58c-23 -6 -43 -7 -62 -9c-73 0 -111 22 -111 79c0 29 16 57 51 94z" />
    <glyph glyph-name="tilde" unicode="&#x2dc;" horiz-adv-x="433" 
d="M369 699c0 -57 -19 -124 -94 -124c-22 0 -41 8 -61 27l-27 24c-11 11 -21 14 -31 17c-23 0 -33 -20 -35 -68h-58c0 76 32 123 90 124c23 0 43 -8 65 -27l26 -24c13 -12 24 -18 32 -18c22 0 33 18 35 69h58z" />
    <glyph glyph-name="hungarumlaut" unicode="&#x2dd;" horiz-adv-x="417" 
d="M291 720h82l-115 -166h-62zM136 720h79l-104 -166h-64z" />
    <glyph glyph-name="pi" unicode="&#x3c0;" horiz-adv-x="618" 
d="M580 416h-84l-49 -236c-9 -45 -12 -50 -14 -66c0 -37 13 -52 47 -52c12 0 25 1 47 6l-14 -68c-19 -3 -34 -5 -52 -7c-72 0 -111 31 -111 96c0 33 4 40 26 144l37 183h-151l-90 -416h-84l90 416h-19c-32 0 -51 -19 -57 -65h-74c17 109 54 141 156 141h412z" />
    <glyph glyph-name="uni2000" unicode="&#x2000;" horiz-adv-x="500" 
 />
    <glyph glyph-name="uni2001" unicode="&#x2001;" horiz-adv-x="1000" 
 />
    <glyph glyph-name="uni2002" unicode="&#x2002;" horiz-adv-x="500" 
 />
    <glyph glyph-name="uni2003" unicode="&#x2003;" horiz-adv-x="1000" 
 />
    <glyph glyph-name="uni2004" unicode="&#x2004;" horiz-adv-x="333" 
 />
    <glyph glyph-name="uni2005" unicode="&#x2005;" 
 />
    <glyph glyph-name="uni2006" unicode="&#x2006;" horiz-adv-x="166" 
 />
    <glyph glyph-name="uni2007" unicode="&#x2007;" horiz-adv-x="637" 
 />
    <glyph glyph-name="uni2008" unicode="&#x2008;" horiz-adv-x="254" 
 />
    <glyph glyph-name="uni2009" unicode="&#x2009;" horiz-adv-x="100" 
 />
    <glyph glyph-name="uni200A" unicode="&#x200a;" horiz-adv-x="10" 
 />
    <glyph glyph-name="uni200B" unicode="&#x200b;" horiz-adv-x="0" 
 />
    <glyph glyph-name="uni2010" unicode="&#x2010;" horiz-adv-x="406" 
d="M78 210v72h250v-72h-250z" />
    <glyph glyph-name="uni2011" unicode="&#x2011;" horiz-adv-x="406" 
d="M78 210v72h250v-72h-250z" />
    <glyph glyph-name="figuredash" unicode="&#x2012;" horiz-adv-x="637" 
d="M78 210v72h481v-72h-481z" />
    <glyph glyph-name="endash" unicode="&#x2013;" horiz-adv-x="500" 
d="M78 210v72h344v-72h-344z" />
    <glyph glyph-name="emdash" unicode="&#x2014;" horiz-adv-x="1000" 
d="M78 210v72h844v-72h-844z" />
    <glyph glyph-name="afii00208" unicode="&#x2015;" horiz-adv-x="2000" 
d="M78 210v72h1844v-72h-1844z" />
    <glyph glyph-name="uni2016" unicode="&#x2016;" horiz-adv-x="470" 
d="M392 722v-930h-79v930h79zM157 722v-930h-79v930h79z" />
    <glyph glyph-name="quoteleft" unicode="&#x2018;" horiz-adv-x="255" 
d="M160 440h-98v75l76 141h60l-38 -141v-75z" />
    <glyph glyph-name="quoteright" unicode="&#x2019;" 
d="M92 656h97v-67l-76 -140h-59l38 140v67z" />
    <glyph glyph-name="quotesinglbase" unicode="&#x201a;" horiz-adv-x="251" 
d="M92 111h98v-75l-76 -140h-60l38 140v75z" />
    <glyph glyph-name="quotereversed" unicode="&#x201b;" 
d="M151 656v-67l38 -140h-59l-76 140v67h97z" />
    <glyph glyph-name="quotedblleft" unicode="&#x201c;" horiz-adv-x="445" 
d="M160 440h-98v75l76 141h60l-38 -141v-75zM350 440h-98v75l76 141h60l-38 -141v-75z" />
    <glyph glyph-name="quotedblright" unicode="&#x201d;" horiz-adv-x="445" 
d="M94 656h98v-76l-76 -140h-60l38 140v76zM284 656h98v-76l-76 -140h-60l38 140v76z" />
    <glyph glyph-name="quotedblbase" unicode="&#x201e;" horiz-adv-x="441" 
d="M282 111h98v-75l-76 -140h-60l38 140v75zM92 111h98v-75l-76 -140h-60l38 140v75z" />
    <glyph glyph-name="uni201F" unicode="&#x201f;" horiz-adv-x="445" 
d="M344 656v-76l38 -140h-60l-76 140v76h98zM154 656v-76l38 -140h-60l-76 140v76h98z" />
    <glyph glyph-name="dagger" unicode="&#x2020;" horiz-adv-x="442" 
d="M180 656h82v-185h170v-67h-170v-490h-82v490h-170v67h170v185z" />
    <glyph glyph-name="daggerdbl" unicode="&#x2021;" horiz-adv-x="478" 
d="M450 98h-170v-184h-82v184h-170v67h170v239h-170v67h170v185h82v-185h170v-67h-170v-239h170v-67z" />
    <glyph glyph-name="bullet" unicode="&#x2022;" horiz-adv-x="330" 
d="M35 378c0 73 58 132 130 132s130 -59 130 -132s-58 -132 -130 -132s-130 59 -130 132z" />
    <glyph glyph-name="uni2023" unicode="&#x2023;" horiz-adv-x="449" 
d="M100 200v402l299 -201z" />
    <glyph glyph-name="onedotenleader" unicode="&#x2024;" horiz-adv-x="254" 
d="M78 111h98v-111h-98v111z" />
    <glyph glyph-name="twodotenleader" unicode="&#x2025;" horiz-adv-x="508" 
d="M332 111h98v-111h-98v111zM78 111h98v-111h-98v111z" />
    <glyph glyph-name="ellipsis" unicode="&#x2026;" horiz-adv-x="762" 
d="M586 111h98v-111h-98v111zM332 111h98v-111h-98v111zM78 111h98v-111h-98v111z" />
    <glyph glyph-name="perthousand" unicode="&#x2030;" horiz-adv-x="1236" 
d="M1045 316c-53 0 -87 -48 -87 -135c0 -81 31 -134 87 -134c51 0 85 49 85 134c0 86 -33 135 -85 135zM1045 378c97 0 159 -76 159 -197c0 -117 -61 -194 -159 -194c-100 0 -161 75 -161 194s61 195 161 197zM193 733c94 0 161 -72 161 -196c0 -118 -60 -196 -161 -196
c-98 0 -159 74 -159 196c0 116 61 196 159 196zM612 733h74l-433 -746h-74zM193 673c-54 0 -85 -53 -85 -136c0 -80 28 -135 85 -135c53 0 87 47 87 135c0 83 -32 136 -87 136zM672 378c97 0 160 -76 160 -197c0 -117 -61 -194 -160 -194c-100 0 -160 75 -160 194
s60 195 160 197zM672 316c-51 0 -86 -47 -86 -135c0 -81 30 -134 86 -134c52 0 86 52 86 134c0 83 -34 135 -86 135z" />
    <glyph glyph-name="guilsinglleft" unicode="&#x2039;" horiz-adv-x="309" 
d="M249 465v-84l-139 -118l139 -118v-83l-217 183v36z" />
    <glyph glyph-name="guilsinglright" unicode="&#x203a;" horiz-adv-x="310" 
d="M60 465l218 -184v-36l-218 -183v83l140 118l-140 118v84z" />
    <glyph glyph-name="fraction" unicode="&#x2044;" horiz-adv-x="440" 
d="M362 667h74l-433 -679h-73z" />
    <glyph glyph-name="four.superior" unicode="&#x2074;" horiz-adv-x="395" 
d="M226 667l-143 -202h143v202zM216 726h77v-261h63v-53h-63v-90h-67v90h-191v58z" />
    <glyph glyph-name="Euro" unicode="&#x20ac;" horiz-adv-x="602" 
d="M562 665v-102c-54 66 -104 93 -168 93c-96 0 -161 -64 -182 -187h268l-25 -59h-250c0 -8 -1 -14 -1 -23c0 -12 -1 -28 -1 -44c0 -11 1 -23 2 -33h207l-26 -60h-174c19 -120 84 -188 182 -188c63 0 111 27 168 95v-102c-54 -46 -109 -68 -172 -68c-144 0 -245 94 -272 263
h-98l26 60h65c0 6 0 15 -1 22c0 14 -1 31 -1 46c0 12 1 23 2 32h-91l26 59h72c25 165 127 264 272 264c61 0 119 -23 172 -68z" />
    <glyph glyph-name="trademark" unicode="&#x2122;" horiz-adv-x="724" 
d="M410 721l81 -124l76 124h79v-279h-52v233l-91 -146h-25l-94 146v-233h-54v279h80zM278 721v-46h-94v-233h-53v233h-93v46h240z" />
    <glyph glyph-name="uni2126" unicode="&#x2126;" horiz-adv-x="752" 
d="M702 85v-85h-279v85c109 62 174 175 174 305c0 154 -88 256 -222 256c-132 0 -224 -101 -224 -256c0 -128 63 -242 175 -305v-85h-278v85h148c-97 88 -140 179 -140 301c0 202 129 344 319 344c184 0 319 -140 319 -340c0 -125 -40 -213 -141 -305h149z" />
    <glyph glyph-name="partialdiff" unicode="&#x2202;" horiz-adv-x="487" 
d="M339 272c9 52 12 99 14 143c0 74 -23 115 -68 115c-30 0 -89 -52 -109 -52s-39 14 -39 34c0 37 53 68 114 70c110 0 183 -97 183 -252c0 -192 -100 -340 -233 -340c-91 0 -164 68 -164 165c0 115 77 200 177 200c62 0 99 -24 125 -83zM316 216c0 69 -28 107 -77 107
c-67 0 -116 -83 -116 -205c0 -68 27 -103 77 -105c66 0 116 84 116 203z" />
    <glyph glyph-name="increment" unicode="&#x2206;" horiz-adv-x="663" 
d="M331 609l-194 -524h388zM280 721h103l269 -721h-641z" />
    <glyph glyph-name="product" unicode="&#x220f;" horiz-adv-x="730" 
d="M78 711h574v-900h-111v801h-351v-801h-112v900z" />
    <glyph glyph-name="summation" unicode="&#x2211;" horiz-adv-x="660" 
d="M41 711h584v-93h-445l312 -347l-322 -367h467v-93h-610v72l336 385l-322 357v86z" />
    <glyph glyph-name="minus" unicode="&#x2212;" horiz-adv-x="406" 
d="M78 282h250v-72h-250v72z" />
    <glyph glyph-name="radical" unicode="&#x221a;" horiz-adv-x="533" 
d="M493 801h166v-46h-131l-276 -774h-30l-148 424l-58 -20l-12 38l131 47l119 -342z" />
    <glyph glyph-name="infinity" unicode="&#x221e;" horiz-adv-x="697" 
d="M375 245c29 -50 71 -78 124 -78c62 0 106 43 106 105c0 57 -40 104 -96 104c-49 0 -87 -33 -134 -131zM318 292c-27 50 -70 77 -123 77c-64 0 -107 -43 -107 -104c0 -57 39 -103 96 -103c49 0 87 32 134 130zM352 212c-43 -78 -90 -115 -150 -115c-82 0 -149 72 -149 171
c0 100 55 172 140 172c58 0 102 -35 148 -116c41 79 89 117 150 117c80 0 149 -73 149 -171c0 -101 -56 -171 -139 -171c-58 0 -100 29 -149 113z" />
    <glyph glyph-name="integral" unicode="&#x222b;" horiz-adv-x="467" 
d="M68 -49c61 0 43 -77 63 -77c32 0 51 111 55 331c10 394 47 544 189 544c45 0 83 -28 83 -73c0 -32 -19 -56 -55 -56c-69 0 -47 77 -65 77c-34 0 -52 -100 -56 -299c-7 -413 -46 -576 -190 -576c-49 0 -84 29 -84 71c0 32 17 58 60 58z" />
    <glyph glyph-name="approxequal" unicode="&#x2248;" horiz-adv-x="715" 
d="M236 262c114 0 150 -59 252 -59c53 0 101 19 166 70v-78c-65 -46 -115 -65 -176 -65c-86 0 -166 59 -252 59c-54 0 -107 -20 -166 -70v79c62 45 115 64 176 64zM241 433c102 0 149 -59 247 -59c53 0 101 19 166 70v-78c-65 -46 -115 -65 -176 -65c-86 0 -166 59 -252 59
c-54 0 -107 -20 -166 -70v79c61 44 114 64 181 64z" />
    <glyph glyph-name="notequal" unicode="&#x2260;" horiz-adv-x="674" 
d="M40 408h358l118 139l58 -45l-80 -94h140v-74h-204l-90 -105h294v-75h-359l-120 -137l-57 45l80 92h-138v75h203l90 105h-293v74z" />
    <glyph glyph-name="lessequal" unicode="&#x2264;" horiz-adv-x="691" 
d="M635 446l-446 -122l446 -120v-78l-595 162v74l595 161v-77zM40 74h595v-74h-595v74z" />
    <glyph glyph-name="greaterequal" unicode="&#x2265;" horiz-adv-x="689" 
d="M55 446v77l594 -161v-74l-594 -162v78l445 120zM649 74v-74h-594v74h594z" />
    <glyph glyph-name="lozenge" unicode="&#x25ca;" horiz-adv-x="498" 
d="M249 619l-178 -359l178 -362l179 362zM249 726l232 -466l-232 -469l-232 469z" />
    <glyph glyph-name="uniEFED" unicode="&#xefed;" horiz-adv-x="251" 
d="M78 658h95v-90h-95v90z" />
    <glyph glyph-name="breve.cap" unicode="&#xefee;" horiz-adv-x="416" 
d="M63 671h56c7 -31 38 -49 90 -49c49 0 78 15 90 49h55c-6 -68 -56 -106 -145 -106c-88 0 -138 34 -146 106z" />
    <glyph glyph-name="tilde.cap" unicode="&#xeff5;" horiz-adv-x="431" 
d="M58 568c0 59 33 97 94 97c20 0 34 -5 61 -19l27 -14c12 -6 23 -11 33 -11c19 0 33 16 33 41v3h58c0 -56 -35 -97 -87 -97c-21 0 -35 2 -68 19l-26 15c-14 7 -24 10 -32 10c-21 0 -35 -15 -35 -41v-3h-58z" />
    <glyph glyph-name="circumflex.cap" unicode="&#xeff7;" horiz-adv-x="382" 
d="M147 671h87l98 -117h-65l-77 78l-77 -78h-64z" />
    <glyph glyph-name="uniF6C3" unicode="&#xf6c3;" horiz-adv-x="254" 
d="M83 -59h98v-76l-76 -140h-60l38 140v76z" />
    <glyph glyph-name="acute.cap" unicode="&#xf6c9;" horiz-adv-x="273" 
d="M142 670h86l-105 -116h-72z" />
    <glyph glyph-name="caron.cap" unicode="&#xf6ca;" horiz-adv-x="375" 
d="M144 554l-97 117h64l76 -78l77 78h65l-98 -117h-87z" />
    <glyph glyph-name="dieresis.cap" unicode="&#xf6cb;" horiz-adv-x="432" 
d="M260 657h94v-89h-94v89zM78 657h94v-89h-94v89z" />
    <glyph glyph-name="grave.cap" unicode="&#xf6ce;" horiz-adv-x="273" 
d="M131 670l91 -116h-71l-106 116h86z" />
    <glyph glyph-name="longs_t" unicode="&#xfb05;" horiz-adv-x="677" 
d="M197 614v-614h-85v429h-82v63h82v113c0 111 51 193 168 195h80v-68h-81c-63 0 -80 -56 -82 -118zM475 640v-148h145v-63h-145v-267c0 -80 14 -95 88 -95h88v-67h-88c-129 0 -174 35 -174 162v267h-62v63h62v118z" />
    <glyph glyph-name="s_t" unicode="&#xfb06;" horiz-adv-x="878" 
d="M270 504c43 148 159 231 327 231c27 0 53 -2 79 -6v-237h145v-63h-145v-267c0 -80 14 -95 88 -95h88v-67h-88c-129 0 -174 35 -174 162v267h-62v63h62v163c-116 -4 -192 -58 -223 -162c19 -4 36 -10 53 -16v-76c-51 22 -99 33 -155 35c-81 0 -128 -22 -128 -74
c0 -37 20 -55 114 -74l30 -7c118 -25 167 -63 167 -146c0 -91 -82 -147 -215 -147c-52 0 -113 9 -182 30v83c65 -31 123 -45 184 -47c75 0 124 25 126 75c0 43 -16 60 -127 85l-29 6c-105 23 -148 58 -150 139c0 91 71 145 199 145h16z" />
    </font>
</defs>
</svg>
